STARTFONT 2.1
FONT -FontForge-Permanent Marker-Book-R-Normal--16-160-72-72-P-91-ISO10646-1
SIZE 16 72 72
FONTBOUNDINGBOX 25 23 -5 -5
COMMENT "Generated by fontforge, http://fontforge.sourceforge.net"
COMMENT "Copyright (c) 2010 by Font Diner, Inc. All rights reserved."
STARTPROPERTIES 39
FOUNDRY "FontForge"
FAMILY_NAME "Permanent Marker"
WEIGHT_NAME "Book"
SLANT "R"
SETWIDTH_NAME "Normal"
ADD_STYLE_NAME ""
PIXEL_SIZE 16
POINT_SIZE 160
RESOLUTION_X 72
RESOLUTION_Y 72
SPACING "P"
AVERAGE_WIDTH 91
CHARSET_REGISTRY "ISO10646"
CHARSET_ENCODING "1"
FONTNAME_REGISTRY ""
CHARSET_COLLECTIONS "ISO10646-1"
FONT_NAME "PermanentMarker-Regular"
FACE_NAME "Permanent Marker Regular"
COPYRIGHT "Copyright (c) 2010 by Font Diner, Inc. All rights reserved."
FONT_VERSION "1.001"
FONT_ASCENT 13
FONT_DESCENT 3
UNDERLINE_POSITION -2
UNDERLINE_THICKNESS 1
X_HEIGHT 8
CAP_HEIGHT 10
RAW_ASCENT 799
RAW_DESCENT 200
NORM_SPACE 6
RELATIVE_WEIGHT 40
RELATIVE_SETWIDTH 50
SUPERSCRIPT_X 0
SUPERSCRIPT_Y 7
SUPERSCRIPT_SIZE 10
SUBSCRIPT_X 0
SUBSCRIPT_Y 2
SUBSCRIPT_SIZE 10
AVG_LOWERCASE_WIDTH 89
AVG_UPPERCASE_WIDTH 108
ENDPROPERTIES
CHARS 230
STARTCHAR space
ENCODING 32
SWIDTH 370 0
DWIDTH 6 0
BBX 1 1 0 0
BITMAP
00
ENDCHAR
STARTCHAR exclam
ENCODING 33
SWIDTH 260 0
DWIDTH 4 0
BBX 4 12 0 0
BITMAP
10
30
30
30
30
70
70
60
00
80
E0
E0
ENDCHAR
STARTCHAR quotedbl
ENCODING 34
SWIDTH 492 0
DWIDTH 8 0
BBX 8 8 1 4
BITMAP
26
77
76
6E
EC
EC
CC
48
ENDCHAR
STARTCHAR numbersign
ENCODING 35
SWIDTH 703 0
DWIDTH 11 0
BBX 12 12 0 0
BITMAP
0480
0CC0
0CC0
0FC0
7FF0
7F80
1980
7FC0
FFC0
3700
7600
6600
ENDCHAR
STARTCHAR dollar
ENCODING 36
SWIDTH 493 0
DWIDTH 8 0
BBX 9 12 0 0
BITMAP
0400
0400
0F00
3F80
7A80
F800
3C00
0600
0C00
7C00
7800
3000
ENDCHAR
STARTCHAR percent
ENCODING 37
SWIDTH 643 0
DWIDTH 10 0
BBX 9 11 1 0
BITMAP
3080
7180
D380
F600
6C00
1800
3300
6700
CD00
CF00
8E00
ENDCHAR
STARTCHAR ampersand
ENCODING 38
SWIDTH 599 0
DWIDTH 10 0
BBX 9 8 0 1
BITMAP
0400
0E00
7E00
FF00
FF80
7C00
1C00
1C00
ENDCHAR
STARTCHAR quotesingle
ENCODING 39
SWIDTH 265 0
DWIDTH 4 0
BBX 4 8 1 4
BITMAP
20
70
70
60
E0
E0
C0
40
ENDCHAR
STARTCHAR parenleft
ENCODING 40
SWIDTH 361 0
DWIDTH 6 0
BBX 8 17 0 -3
BITMAP
03
06
0E
1E
1C
38
70
70
60
60
60
60
E0
60
70
20
30
ENDCHAR
STARTCHAR parenright
ENCODING 41
SWIDTH 361 0
DWIDTH 6 0
BBX 7 17 -2 -3
BITMAP
08
0C
0E
0E
0E
06
06
06
0E
0C
0C
1C
38
78
F0
E0
80
ENDCHAR
STARTCHAR asterisk
ENCODING 42
SWIDTH 673 0
DWIDTH 11 0
BBX 10 8 1 4
BITMAP
1100
3B00
1F00
7FC0
FFC0
5E00
3F00
3300
ENDCHAR
STARTCHAR plus
ENCODING 43
SWIDTH 579 0
DWIDTH 9 0
BBX 8 9 0 0
BITMAP
04
0C
1C
1C
FF
7F
18
38
10
ENDCHAR
STARTCHAR comma
ENCODING 44
SWIDTH 204 0
DWIDTH 3 0
BBX 4 5 -2 -3
BITMAP
30
70
70
E0
40
ENDCHAR
STARTCHAR hyphen
ENCODING 45
SWIDTH 609 0
DWIDTH 10 0
BBX 9 2 0 3
BITMAP
FF80
7F00
ENDCHAR
STARTCHAR period
ENCODING 46
SWIDTH 228 0
DWIDTH 4 0
BBX 2 3 0 0
BITMAP
80
C0
C0
ENDCHAR
STARTCHAR slash
ENCODING 47
SWIDTH 401 0
DWIDTH 6 0
BBX 9 11 -1 0
BITMAP
0180
0380
0700
0600
0C00
1C00
3800
7000
6000
E000
6000
ENDCHAR
STARTCHAR zero
ENCODING 48
SWIDTH 686 0
DWIDTH 11 0
BBX 10 12 0 0
BITMAP
0300
0780
0F00
1F80
3D80
79C0
70C0
E0C0
E1C0
FFC0
7F80
7E00
ENDCHAR
STARTCHAR one
ENCODING 49
SWIDTH 322 0
DWIDTH 5 0
BBX 4 12 0 0
BITMAP
20
70
70
30
30
30
70
70
70
60
E0
60
ENDCHAR
STARTCHAR two
ENCODING 50
SWIDTH 650 0
DWIDTH 10 0
BBX 10 12 1 0
BITMAP
3800
FE00
FF00
6780
0F00
1E00
3C00
7800
F1C0
FFC0
FFC0
FC00
ENDCHAR
STARTCHAR three
ENCODING 51
SWIDTH 561 0
DWIDTH 9 0
BBX 9 11 0 0
BITMAP
7F00
FF80
FF00
3E00
3C00
3E00
0F00
0700
7F00
FE00
7800
ENDCHAR
STARTCHAR four
ENCODING 52
SWIDTH 582 0
DWIDTH 9 0
BBX 8 13 1 -1
BITMAP
04
86
CE
CE
CF
FF
FF
3C
18
18
18
1C
08
ENDCHAR
STARTCHAR five
ENCODING 53
SWIDTH 580 0
DWIDTH 9 0
BBX 10 12 1 0
BITMAP
1000
3980
FF80
FFC0
F800
F800
7C00
1C00
0E00
FE00
FC00
7800
ENDCHAR
STARTCHAR six
ENCODING 54
SWIDTH 500 0
DWIDTH 8 0
BBX 8 12 0 0
BITMAP
04
1C
3C
38
70
60
EE
FE
DF
FE
FC
F8
ENDCHAR
STARTCHAR seven
ENCODING 55
SWIDTH 576 0
DWIDTH 9 0
BBX 10 12 0 0
BITMAP
3000
FE00
FF00
0700
0300
0700
7FC0
7F80
7C00
1C00
1800
1800
ENDCHAR
STARTCHAR eight
ENCODING 56
SWIDTH 537 0
DWIDTH 9 0
BBX 8 12 1 0
BITMAP
32
7B
FF
CF
EF
FE
78
F8
D8
FC
7C
78
ENDCHAR
STARTCHAR nine
ENCODING 57
SWIDTH 529 0
DWIDTH 8 0
BBX 8 12 1 0
BITMAP
08
3C
7E
E6
FF
FE
FC
0C
0C
0C
0C
18
ENDCHAR
STARTCHAR colon
ENCODING 58
SWIDTH 241 0
DWIDTH 4 0
BBX 3 7 0 0
BITMAP
60
E0
60
00
80
C0
C0
ENDCHAR
STARTCHAR semicolon
ENCODING 59
SWIDTH 245 0
DWIDTH 4 0
BBX 4 10 -1 -3
BITMAP
30
30
30
00
00
60
60
E0
E0
40
ENDCHAR
STARTCHAR less
ENCODING 60
SWIDTH 625 0
DWIDTH 10 0
BBX 10 8 0 0
BITMAP
0080
03C0
1F80
FE00
F800
3E00
0F00
0100
ENDCHAR
STARTCHAR equal
ENCODING 61
SWIDTH 586 0
DWIDTH 9 0
BBX 9 5 0 2
BITMAP
7F80
7F80
0000
FF00
FF00
ENDCHAR
STARTCHAR greater
ENCODING 62
SWIDTH 634 0
DWIDTH 10 0
BBX 10 8 -1 0
BITMAP
2000
3C00
1F80
03C0
0FC0
7E00
F000
4000
ENDCHAR
STARTCHAR question
ENCODING 63
SWIDTH 556 0
DWIDTH 9 0
BBX 9 13 1 -1
BITMAP
3C00
7F80
FF80
0380
0F00
1E00
3C00
7000
2000
0000
C000
E000
8000
ENDCHAR
STARTCHAR at
ENCODING 64
SWIDTH 732 0
DWIDTH 12 0
BBX 11 12 0 0
BITMAP
0300
0780
07C0
1C60
3BE0
7720
ED20
D960
DFC0
C600
7D80
3FC0
ENDCHAR
STARTCHAR A
ENCODING 65
SWIDTH 702 0
DWIDTH 11 0
BBX 11 12 0 0
BITMAP
0200
0700
1F00
1F80
3F80
3B80
79C0
7FE0
EFC0
EDC0
E3C0
C180
ENDCHAR
STARTCHAR B
ENCODING 66
SWIDTH 686 0
DWIDTH 11 0
BBX 11 12 0 0
BITMAP
0F00
7F80
FFC0
F3C0
1F80
3F00
3F80
30C0
71C0
77E0
7F80
7E00
ENDCHAR
STARTCHAR C
ENCODING 67
SWIDTH 611 0
DWIDTH 10 0
BBX 9 12 0 0
BITMAP
0100
0780
0F80
3F80
7C00
F000
E000
E000
E000
7F00
7F80
1F00
ENDCHAR
STARTCHAR D
ENCODING 68
SWIDTH 588 0
DWIDTH 9 0
BBX 9 12 0 0
BITMAP
4000
7000
7C00
7E00
6300
6180
6180
6380
7F00
FE00
F800
6000
ENDCHAR
STARTCHAR E
ENCODING 69
SWIDTH 626 0
DWIDTH 10 0
BBX 10 12 0 0
BITMAP
0080
1FC0
7FC0
7E00
3000
3F00
7F80
7E00
E000
FF80
FFC0
7F00
ENDCHAR
STARTCHAR F
ENCODING 70
SWIDTH 575 0
DWIDTH 9 0
BBX 11 12 0 0
BITMAP
01C0
1FE0
7FE0
7800
3800
3800
FF80
FF00
F800
E000
E000
6000
ENDCHAR
STARTCHAR G
ENCODING 71
SWIDTH 789 0
DWIDTH 13 0
BBX 13 12 0 0
BITMAP
0080
03C0
07C0
1F80
3E00
78C0
70F0
E0F8
E1F8
FFF0
7FC0
7E00
ENDCHAR
STARTCHAR H
ENCODING 72
SWIDTH 695 0
DWIDTH 11 0
BBX 11 12 0 0
BITMAP
0040
20C0
30C0
70E0
70E0
70E0
73C0
7FC0
FFC0
F9C0
E1C0
E180
ENDCHAR
STARTCHAR I
ENCODING 73
SWIDTH 515 0
DWIDTH 8 0
BBX 11 12 -1 0
BITMAP
07C0
1FE0
1FE0
0700
0700
0600
0E00
0E00
0C00
1E00
FF00
7D00
ENDCHAR
STARTCHAR J
ENCODING 74
SWIDTH 668 0
DWIDTH 11 0
BBX 13 11 0 0
BITMAP
7FF0
7FF8
7380
0380
0380
0300
0700
0700
FE00
FE00
FC00
ENDCHAR
STARTCHAR K
ENCODING 75
SWIDTH 776 0
DWIDTH 12 0
BBX 13 12 0 0
BITMAP
1000
1C20
3CF0
39F0
3FC0
7F80
7E00
7E00
7FF0
F3F8
F0F0
6000
ENDCHAR
STARTCHAR L
ENCODING 76
SWIDTH 632 0
DWIDTH 10 0
BBX 10 12 0 0
BITMAP
1000
1C00
3800
3800
3800
7000
7000
E000
E000
FF80
FFC0
7C80
ENDCHAR
STARTCHAR M
ENCODING 77
SWIDTH 973 0
DWIDTH 16 0
BBX 16 12 0 0
BITMAP
0800
0E0E
1E1E
3E3F
3E7E
3FFE
7FEE
77CE
F00E
E01C
E00C
4008
ENDCHAR
STARTCHAR N
ENCODING 78
SWIDTH 684 0
DWIDTH 11 0
BBX 11 12 0 0
BITMAP
1040
1C60
1CE0
3CE0
3CE0
7CC0
7DC0
FDC0
FFC0
EF80
E780
4200
ENDCHAR
STARTCHAR O
ENCODING 79
SWIDTH 744 0
DWIDTH 12 0
BBX 11 12 0 0
BITMAP
0100
0380
0FC0
1F80
3FC0
78C0
7060
E060
E0E0
FFE0
7FC0
7F00
ENDCHAR
STARTCHAR P
ENCODING 80
SWIDTH 639 0
DWIDTH 10 0
BBX 10 12 1 0
BITMAP
0E00
3F80
3F80
7BC0
73C0
FFC0
FF80
FE00
E000
E000
E000
C000
ENDCHAR
STARTCHAR Q
ENCODING 81
SWIDTH 744 0
DWIDTH 12 0
BBX 12 13 0 -1
BITMAP
0300
0380
07C0
0FE0
1E60
7860
7770
E3E0
E3E0
DFC0
FFC0
7EE0
0040
ENDCHAR
STARTCHAR R
ENCODING 82
SWIDTH 646 0
DWIDTH 10 0
BBX 10 13 0 -1
BITMAP
0400
0F00
1F80
3F80
7980
7780
7F80
7E00
F800
FE00
EFC0
47C0
00C0
ENDCHAR
STARTCHAR S
ENCODING 83
SWIDTH 576 0
DWIDTH 9 0
BBX 11 12 0 0
BITMAP
01C0
1FC0
7FE0
F800
FC00
7E00
0700
0300
0700
1E00
7C00
7800
ENDCHAR
STARTCHAR T
ENCODING 84
SWIDTH 607 0
DWIDTH 10 0
BBX 12 12 0 0
BITMAP
04E0
FFF0
FFF0
7E00
0E00
1C00
1C00
1800
3800
3800
3800
1800
ENDCHAR
STARTCHAR U
ENCODING 85
SWIDTH 695 0
DWIDTH 11 0
BBX 11 12 1 0
BITMAP
0080
00C0
C0C0
E0E0
E0C0
E1C0
E3C0
E780
FF00
FE00
7C00
7000
ENDCHAR
STARTCHAR V
ENCODING 86
SWIDTH 583 0
DWIDTH 9 0
BBX 10 12 1 0
BITMAP
8080
C180
E3C0
E780
E700
EE00
FC00
FC00
7800
7800
7000
3000
ENDCHAR
STARTCHAR W
ENCODING 87
SWIDTH 994 0
DWIDTH 16 0
BBX 17 12 0 0
BITMAP
000200
304300
38C380
38E780
71E700
73C700
73CE00
67DE00
EFFC00
7EFC00
7C7800
383000
ENDCHAR
STARTCHAR X
ENCODING 88
SWIDTH 623 0
DWIDTH 10 0
BBX 11 12 0 -1
BITMAP
70C0
79E0
3BC0
3F80
1E00
3E00
7E00
F700
E380
C380
C100
8000
ENDCHAR
STARTCHAR Y
ENCODING 89
SWIDTH 493 0
DWIDTH 8 0
BBX 9 13 1 -1
BITMAP
8300
C780
EF00
EE00
FC00
7C00
7800
7800
7000
E000
E000
C000
4000
ENDCHAR
STARTCHAR Z
ENCODING 90
SWIDTH 664 0
DWIDTH 11 0
BBX 11 12 0 -1
BITMAP
3FE0
1FE0
03E0
0780
0F00
3E00
7C00
F080
E7C0
FFC0
FE00
3000
ENDCHAR
STARTCHAR bracketleft
ENCODING 91
SWIDTH 387 0
DWIDTH 6 0
BBX 11 17 0 -3
BITMAP
1FE0
1FE0
1800
1800
1800
3800
3000
3000
7000
7000
6000
6000
E000
C000
FE00
FE00
8000
ENDCHAR
STARTCHAR backslash
ENCODING 92
SWIDTH 352 0
DWIDTH 6 0
BBX 4 12 1 0
BITMAP
80
C0
C0
C0
40
60
60
60
60
60
60
70
ENDCHAR
STARTCHAR bracketright
ENCODING 93
SWIDTH 403 0
DWIDTH 6 0
BBX 11 18 -4 -3
BITMAP
0100
1FE0
1FE0
00C0
00C0
01C0
01C0
0180
0180
0380
0380
0300
0300
0700
0600
FE00
FE00
8000
ENDCHAR
STARTCHAR asciicircum
ENCODING 94
SWIDTH 518 0
DWIDTH 8 0
BBX 7 9 0 3
BITMAP
04
0E
0E
1E
3E
36
76
E6
C2
ENDCHAR
STARTCHAR underscore
ENCODING 95
SWIDTH 708 0
DWIDTH 11 0
BBX 13 3 -2 -1
BITMAP
FFF0
7FF8
2000
ENDCHAR
STARTCHAR grave
ENCODING 96
SWIDTH 754 0
DWIDTH 12 0
BBX 4 5 5 7
BITMAP
80
E0
F0
70
10
ENDCHAR
STARTCHAR a
ENCODING 97
SWIDTH 581 0
DWIDTH 9 0
BBX 9 10 0 0
BITMAP
0400
0E00
1E00
3E00
3600
7780
7F80
FF00
C700
C300
ENDCHAR
STARTCHAR b
ENCODING 98
SWIDTH 573 0
DWIDTH 9 0
BBX 9 10 0 0
BITMAP
1E00
FF00
F300
FF00
3E00
3E00
7100
6780
7F00
7C00
ENDCHAR
STARTCHAR c
ENCODING 99
SWIDTH 513 0
DWIDTH 8 0
BBX 8 10 0 0
BITMAP
04
0F
3F
7C
F0
E0
C0
E0
7E
3F
ENDCHAR
STARTCHAR d
ENCODING 100
SWIDTH 497 0
DWIDTH 8 0
BBX 8 10 0 0
BITMAP
40
70
7C
6E
62
63
6F
FE
F8
E0
ENDCHAR
STARTCHAR e
ENCODING 101
SWIDTH 521 0
DWIDTH 8 0
BBX 9 10 0 0
BITMAP
0100
3F80
7F00
7000
7E00
7E00
E000
C200
FF00
7E00
ENDCHAR
STARTCHAR f
ENCODING 102
SWIDTH 455 0
DWIDTH 7 0
BBX 9 10 0 0
BITMAP
0300
3F80
7C00
7000
3000
FE00
FE00
6000
C000
C000
ENDCHAR
STARTCHAR g
ENCODING 103
SWIDTH 652 0
DWIDTH 10 0
BBX 11 10 0 0
BITMAP
0200
0700
1F00
3C00
7900
73C0
E1E0
C7E0
FFC0
7C00
ENDCHAR
STARTCHAR h
ENCODING 104
SWIDTH 582 0
DWIDTH 9 0
BBX 9 10 0 0
BITMAP
0100
6100
6180
7180
6380
6780
7F80
FB00
E700
C300
ENDCHAR
STARTCHAR i
ENCODING 105
SWIDTH 320 0
DWIDTH 5 0
BBX 3 10 1 0
BITMAP
20
60
60
60
E0
C0
C0
C0
C0
C0
ENDCHAR
STARTCHAR j
ENCODING 106
SWIDTH 534 0
DWIDTH 9 0
BBX 11 9 0 0
BITMAP
7FC0
7FE0
0600
0600
0600
0E00
8C00
FC00
F800
ENDCHAR
STARTCHAR k
ENCODING 107
SWIDTH 645 0
DWIDTH 10 0
BBX 11 10 0 0
BITMAP
1000
3880
3BC0
3780
7E00
7C00
7C00
F7C0
E3E0
4000
ENDCHAR
STARTCHAR l
ENCODING 108
SWIDTH 533 0
DWIDTH 9 0
BBX 8 10 0 0
BITMAP
20
38
30
70
70
60
E0
EE
FF
7F
ENDCHAR
STARTCHAR m
ENCODING 109
SWIDTH 814 0
DWIDTH 13 0
BBX 13 10 0 0
BITMAP
0800
1C30
3C78
3CF8
7FF8
7FB0
6F30
E030
C030
C020
ENDCHAR
STARTCHAR n
ENCODING 110
SWIDTH 564 0
DWIDTH 9 0
BBX 9 10 0 0
BITMAP
1100
1980
3980
3980
7B80
7B80
FF00
FF00
CE00
C400
ENDCHAR
STARTCHAR o
ENCODING 111
SWIDTH 628 0
DWIDTH 10 0
BBX 10 10 0 0
BITMAP
0200
0F00
1F00
3F00
7180
6180
E1C0
C380
FF80
7E00
ENDCHAR
STARTCHAR p
ENCODING 112
SWIDTH 524 0
DWIDTH 8 0
BBX 9 10 0 0
BITMAP
0E00
1F00
3F80
3180
7F80
FF00
7C00
6000
E000
6000
ENDCHAR
STARTCHAR q
ENCODING 113
SWIDTH 625 0
DWIDTH 10 0
BBX 10 11 0 -1
BITMAP
0600
0700
0F00
3D80
78C0
FCC0
E780
C780
FF00
7D80
0180
ENDCHAR
STARTCHAR r
ENCODING 114
SWIDTH 541 0
DWIDTH 9 0
BBX 9 11 0 -1
BITMAP
0800
1E00
1E00
7700
7700
7E00
7C00
F800
DF00
CF80
0100
ENDCHAR
STARTCHAR s
ENCODING 115
SWIDTH 463 0
DWIDTH 7 0
BBX 9 10 0 0
BITMAP
0300
3F80
7F80
F000
FC00
0C00
0600
1C00
7C00
7000
ENDCHAR
STARTCHAR t
ENCODING 116
SWIDTH 479 0
DWIDTH 8 0
BBX 10 10 0 0
BITMAP
09C0
FFC0
FF80
1C00
1800
1800
3000
3000
3000
3000
ENDCHAR
STARTCHAR u
ENCODING 117
SWIDTH 584 0
DWIDTH 9 0
BBX 9 10 1 0
BITMAP
0100
8100
C180
C380
C300
C700
CE00
FC00
FC00
7000
ENDCHAR
STARTCHAR v
ENCODING 118
SWIDTH 485 0
DWIDTH 8 0
BBX 8 10 1 0
BITMAP
82
C3
C7
CE
DC
F8
F8
70
70
60
ENDCHAR
STARTCHAR w
ENCODING 119
SWIDTH 825 0
DWIDTH 13 0
BBX 14 10 0 0
BITMAP
0008
310C
319C
739C
6798
67B8
6F70
FFF0
7DE0
70C0
ENDCHAR
STARTCHAR x
ENCODING 120
SWIDTH 506 0
DWIDTH 8 0
BBX 9 10 0 -1
BITMAP
6180
7780
3F00
3C00
3C00
7C00
EE00
C600
C600
8000
ENDCHAR
STARTCHAR y
ENCODING 121
SWIDTH 400 0
DWIDTH 6 0
BBX 7 11 1 -1
BITMAP
84
CE
DE
DC
F8
70
70
E0
C0
C0
80
ENDCHAR
STARTCHAR z
ENCODING 122
SWIDTH 547 0
DWIDTH 9 0
BBX 9 10 0 -1
BITMAP
3F80
3F80
0700
1E00
3C00
F000
E300
FF00
FE00
6000
ENDCHAR
STARTCHAR braceleft
ENCODING 123
SWIDTH 448 0
DWIDTH 7 0
BBX 13 17 0 -3
BITMAP
0FF8
07F0
0E00
0E00
0C00
1C00
7C00
F000
7800
3800
3800
3800
3000
7000
7F00
7F00
2000
ENDCHAR
STARTCHAR bar
ENCODING 124
SWIDTH 332 0
DWIDTH 5 0
BBX 5 12 0 0
BITMAP
08
18
18
18
30
30
30
60
60
60
C0
C0
ENDCHAR
STARTCHAR braceright
ENCODING 125
SWIDTH 481 0
DWIDTH 8 0
BBX 12 18 -5 -3
BITMAP
0080
0FE0
0FE0
0060
0060
00E0
00C0
00E0
01F0
0070
01F0
01C0
0380
0380
0300
FF00
7F00
4000
ENDCHAR
STARTCHAR asciitilde
ENCODING 126
SWIDTH 581 0
DWIDTH 9 0
BBX 9 3 0 3
BITMAP
7B80
FF00
8E00
ENDCHAR
STARTCHAR uni00A0
ENCODING 160
SWIDTH 370 0
DWIDTH 6 0
BBX 1 1 0 0
BITMAP
00
ENDCHAR
STARTCHAR exclamdown
ENCODING 161
SWIDTH 260 0
DWIDTH 4 0
BBX 4 12 0 0
BITMAP
30
70
70
00
60
60
60
E0
C0
C0
C0
C0
ENDCHAR
STARTCHAR cent
ENCODING 162
SWIDTH 488 0
DWIDTH 8 0
BBX 7 12 0 0
BITMAP
04
0C
0E
1E
7C
70
E0
C0
7E
3E
30
30
ENDCHAR
STARTCHAR sterling
ENCODING 163
SWIDTH 586 0
DWIDTH 9 0
BBX 9 9 0 1
BITMAP
0F80
1F80
1800
FE00
FF00
7000
3300
FF00
7E00
ENDCHAR
STARTCHAR currency
ENCODING 164
SWIDTH 509 0
DWIDTH 8 0
BBX 8 9 0 0
BITMAP
49
7F
7E
7C
66
7E
FC
C6
80
ENDCHAR
STARTCHAR yen
ENCODING 165
SWIDTH 563 0
DWIDTH 9 0
BBX 9 10 0 0
BITMAP
2180
3380
3700
3E00
1E00
FF00
7E00
3800
3000
3000
ENDCHAR
STARTCHAR brokenbar
ENCODING 166
SWIDTH 301 0
DWIDTH 5 0
BBX 5 12 0 0
BITMAP
08
18
18
38
30
30
00
40
60
E0
C0
C0
ENDCHAR
STARTCHAR section
ENCODING 167
SWIDTH 630 0
DWIDTH 10 0
BBX 10 15 0 -2
BITMAP
0380
3FC0
3FC0
7800
3E00
3F00
7F80
61C0
7F80
3F00
0F00
0380
FF80
FF00
2000
ENDCHAR
STARTCHAR dieresis
ENCODING 168
SWIDTH 754 0
DWIDTH 12 0
BBX 6 3 4 9
BITMAP
8C
CC
CC
ENDCHAR
STARTCHAR copyright
ENCODING 169
SWIDTH 614 0
DWIDTH 10 0
BBX 10 10 0 2
BITMAP
0600
1F00
3080
6680
5CC0
D0C0
D0C0
DF80
6300
3E00
ENDCHAR
STARTCHAR ordfeminine
ENCODING 170
SWIDTH 454 0
DWIDTH 7 0
BBX 7 7 0 3
BITMAP
1C
3C
7C
7E
FE
CE
4C
ENDCHAR
STARTCHAR guillemotleft
ENCODING 171
SWIDTH 566 0
DWIDTH 9 0
BBX 9 7 0 0
BITMAP
1100
3B80
7700
EE00
CC00
7600
3300
ENDCHAR
STARTCHAR logicalnot
ENCODING 172
SWIDTH 698 0
DWIDTH 11 0
BBX 10 5 0 0
BITMAP
FFC0
FFC0
01C0
0180
0180
ENDCHAR
STARTCHAR sfthyphen
ENCODING 173
SWIDTH 608 0
DWIDTH 10 0
BBX 9 2 0 3
BITMAP
FF80
7F00
ENDCHAR
STARTCHAR registered
ENCODING 174
SWIDTH 624 0
DWIDTH 10 0
BBX 10 10 0 2
BITMAP
0600
1F00
3280
66C0
6BC0
5EC0
DCC0
5780
6300
3E00
ENDCHAR
STARTCHAR macron
ENCODING 175
SWIDTH 754 0
DWIDTH 12 0
BBX 6 3 4 9
BITMAP
F8
FC
80
ENDCHAR
STARTCHAR degree
ENCODING 176
SWIDTH 284 0
DWIDTH 5 0
BBX 5 5 1 8
BITMAP
10
70
78
F8
70
ENDCHAR
STARTCHAR plusminus
ENCODING 177
SWIDTH 559 0
DWIDTH 9 0
BBX 9 11 0 0
BITMAP
0400
0C00
0C00
7F00
7F80
5C00
1800
1800
0000
FE00
FF00
ENDCHAR
STARTCHAR twosuperior
ENCODING 178
SWIDTH 386 0
DWIDTH 6 0
BBX 6 5 1 6
BITMAP
F8
78
70
FC
FC
ENDCHAR
STARTCHAR threesuperior
ENCODING 179
SWIDTH 366 0
DWIDTH 6 0
BBX 5 5 1 6
BITMAP
F8
F8
78
18
78
ENDCHAR
STARTCHAR acute
ENCODING 180
SWIDTH 754 0
DWIDTH 12 0
BBX 4 5 5 7
BITMAP
10
70
F0
E0
80
ENDCHAR
STARTCHAR mu
ENCODING 181
SWIDTH 569 0
DWIDTH 9 0
BBX 9 11 0 -2
BITMAP
0100
4180
6180
6180
6300
6700
FE00
FC00
F800
C000
8000
ENDCHAR
STARTCHAR paragraph
ENCODING 182
SWIDTH 729 0
DWIDTH 12 0
BBX 12 12 1 0
BITMAP
03E0
3FF0
FFE0
F6C0
EEC0
FDC0
3F80
0FC0
1D80
1F80
1B80
1980
ENDCHAR
STARTCHAR periodcentered
ENCODING 183
SWIDTH 226 0
DWIDTH 4 0
BBX 2 2 1 5
BITMAP
C0
C0
ENDCHAR
STARTCHAR cedilla
ENCODING 184
SWIDTH 754 0
DWIDTH 12 0
BBX 6 6 4 -5
BITMAP
30
60
78
0C
FC
70
ENDCHAR
STARTCHAR onesuperior
ENCODING 185
SWIDTH 206 0
DWIDTH 3 0
BBX 3 5 1 6
BITMAP
C0
60
60
C0
C0
ENDCHAR
STARTCHAR ordmasculine
ENCODING 186
SWIDTH 445 0
DWIDTH 7 0
BBX 7 7 0 3
BITMAP
1C
3C
7C
EE
FE
FC
78
ENDCHAR
STARTCHAR guillemotright
ENCODING 187
SWIDTH 595 0
DWIDTH 10 0
BBX 9 7 0 0
BITMAP
8800
6600
7700
3B80
7700
EE00
8800
ENDCHAR
STARTCHAR onequarter
ENCODING 188
SWIDTH 705 0
DWIDTH 11 0
BBX 11 12 0 0
BITMAP
0080
6180
2380
6700
6600
6C00
1EC0
3AC0
73E0
63C0
E180
6180
ENDCHAR
STARTCHAR onehalf
ENCODING 189
SWIDTH 750 0
DWIDTH 12 0
BBX 11 12 0 0
BITMAP
0080
6180
2380
6700
6600
6C00
1F80
3BC0
71C0
6380
E3E0
63C0
ENDCHAR
STARTCHAR threequarters
ENCODING 190
SWIDTH 818 0
DWIDTH 13 0
BBX 11 12 1 0
BITMAP
3040
F8C0
78C0
7180
FB00
F600
0D60
1B60
33E0
61C0
6180
C180
ENDCHAR
STARTCHAR questiondown
ENCODING 191
SWIDTH 556 0
DWIDTH 9 0
BBX 9 13 -1 -1
BITMAP
0100
0380
0380
0000
0300
0700
1E00
7C00
F000
F100
FF80
FF00
0400
ENDCHAR
STARTCHAR Agrave
ENCODING 192
SWIDTH 702 0
DWIDTH 11 0
BBX 11 17 0 0
BITMAP
0400
0700
0780
0380
0080
0200
0700
1F00
1F80
3F80
3B80
79C0
7FE0
EFC0
EDC0
E3C0
C180
ENDCHAR
STARTCHAR Aacute
ENCODING 193
SWIDTH 702 0
DWIDTH 11 0
BBX 11 17 0 0
BITMAP
0080
01C0
0380
0700
0400
0200
0700
1F00
1F80
3F80
3B80
79C0
7FE0
EFC0
EDC0
E3C0
C180
ENDCHAR
STARTCHAR Acircumflex
ENCODING 194
SWIDTH 702 0
DWIDTH 11 0
BBX 11 16 0 0
BITMAP
0300
0FC0
0CC0
0840
0200
0700
1F00
1F80
3F80
3B80
79C0
7FE0
EFC0
EDC0
E3C0
C180
ENDCHAR
STARTCHAR Atilde
ENCODING 195
SWIDTH 702 0
DWIDTH 11 0
BBX 12 16 0 0
BITMAP
0730
0FE0
0DC0
0000
0200
0700
1F00
1F80
3F80
3B80
79C0
7FE0
EFC0
EDC0
E3C0
C180
ENDCHAR
STARTCHAR Adieresis
ENCODING 196
SWIDTH 702 0
DWIDTH 11 0
BBX 11 16 0 0
BITMAP
04C0
0CE0
0C40
0000
0200
0700
1F00
1F80
3F80
3B80
79C0
7FE0
EFC0
EDC0
E3C0
C180
ENDCHAR
STARTCHAR Aring
ENCODING 197
SWIDTH 702 0
DWIDTH 11 0
BBX 11 15 0 0
BITMAP
0180
0380
06C0
07C0
0700
1F00
1F80
3F80
3B80
79C0
7FE0
EFC0
EDC0
E3C0
C180
ENDCHAR
STARTCHAR AE
ENCODING 198
SWIDTH 1153 0
DWIDTH 18 0
BBX 20 12 -1 0
BITMAP
010020
01C7F0
07DFE0
0FDF00
1FDC00
1DDF80
39FFC0
3FFF00
7FF800
ECFFE0
E3FFE0
C1BF80
ENDCHAR
STARTCHAR Ccedilla
ENCODING 199
SWIDTH 611 0
DWIDTH 10 0
BBX 9 17 0 -5
BITMAP
0100
0780
0F80
3F80
7C00
F000
E000
E000
E000
7F00
7F80
1F00
3000
3800
0C00
7E00
3C00
ENDCHAR
STARTCHAR Egrave
ENCODING 200
SWIDTH 626 0
DWIDTH 10 0
BBX 10 17 0 0
BITMAP
0400
0E00
0F00
0380
0100
0080
1FC0
7FC0
7E00
3000
3F00
7F80
7E00
E000
FF80
FFC0
7F00
ENDCHAR
STARTCHAR Eacute
ENCODING 201
SWIDTH 626 0
DWIDTH 10 0
BBX 10 17 0 0
BITMAP
0080
0380
0780
0700
0400
0080
1FC0
7FC0
7E00
3000
3F00
7F80
7E00
E000
FF80
FFC0
7F00
ENDCHAR
STARTCHAR Ecircumflex
ENCODING 202
SWIDTH 626 0
DWIDTH 10 0
BBX 10 16 0 0
BITMAP
0700
0F80
1DC0
0880
0080
1FC0
7FC0
7E00
3000
3F00
7F80
7E00
E000
FF80
FFC0
7F00
ENDCHAR
STARTCHAR Edieresis
ENCODING 203
SWIDTH 626 0
DWIDTH 10 0
BBX 10 15 0 0
BITMAP
0880
1CC0
1980
0080
1FC0
7FC0
7E00
3000
3F00
7F80
7E00
E000
FF80
FFC0
7F00
ENDCHAR
STARTCHAR Igrave
ENCODING 204
SWIDTH 515 0
DWIDTH 8 0
BBX 11 18 -1 0
BITMAP
0400
0E00
0700
0380
0180
0000
07C0
1FE0
1FE0
0700
0700
0600
0E00
0E00
0C00
1E00
FF00
7D00
ENDCHAR
STARTCHAR Iacute
ENCODING 205
SWIDTH 515 0
DWIDTH 8 0
BBX 11 18 -1 0
BITMAP
0040
00E0
01E0
0380
0100
0000
07C0
1FE0
1FE0
0700
0700
0600
0E00
0E00
0C00
1E00
FF00
7D00
ENDCHAR
STARTCHAR Icircumflex
ENCODING 206
SWIDTH 515 0
DWIDTH 8 0
BBX 11 17 -1 0
BITMAP
0380
07C0
0E60
0440
0000
07C0
1FE0
1FE0
0700
0700
0600
0E00
0E00
0C00
1E00
FF00
7D00
ENDCHAR
STARTCHAR Idieresis
ENCODING 207
SWIDTH 515 0
DWIDTH 8 0
BBX 11 16 -1 0
BITMAP
0460
0660
0660
0000
07C0
1FE0
1FE0
0700
0700
0600
0E00
0E00
0C00
1E00
FF00
7D00
ENDCHAR
STARTCHAR Eth
ENCODING 208
SWIDTH 656 0
DWIDTH 11 0
BBX 10 12 0 0
BITMAP
2000
3800
3E00
3F80
3180
FCC0
FCC0
B1C0
3780
7F00
7C00
3000
ENDCHAR
STARTCHAR Ntilde
ENCODING 209
SWIDTH 684 0
DWIDTH 11 0
BBX 12 16 0 0
BITMAP
03B0
07F0
0DE0
0000
1040
1C60
1CE0
3CE0
3CE0
7CC0
7DC0
FDC0
FFC0
EF80
E780
4200
ENDCHAR
STARTCHAR Ograve
ENCODING 210
SWIDTH 744 0
DWIDTH 12 0
BBX 11 17 0 0
BITMAP
0100
0380
01C0
00E0
0040
0100
0380
0FC0
1F80
3FC0
78C0
7060
E060
E0E0
FFE0
7FC0
7F00
ENDCHAR
STARTCHAR Oacute
ENCODING 211
SWIDTH 744 0
DWIDTH 12 0
BBX 11 17 0 0
BITMAP
0080
01C0
0380
0700
0400
0100
0380
0FC0
1F80
3FC0
78C0
7060
E060
E0E0
FFE0
7FC0
7F00
ENDCHAR
STARTCHAR Ocircumflex
ENCODING 212
SWIDTH 744 0
DWIDTH 12 0
BBX 11 16 0 0
BITMAP
0380
07C0
0660
0420
0100
0380
0FC0
1F80
3FC0
78C0
7060
E060
E0E0
FFE0
7FC0
7F00
ENDCHAR
STARTCHAR Otilde
ENCODING 213
SWIDTH 744 0
DWIDTH 12 0
BBX 12 16 0 0
BITMAP
03B0
07F0
0DE0
0000
0100
0380
0FC0
1F80
3FC0
78C0
7060
E060
E0E0
FFE0
7FC0
7F00
ENDCHAR
STARTCHAR Odieresis
ENCODING 214
SWIDTH 744 0
DWIDTH 12 0
BBX 11 16 0 0
BITMAP
0460
0E60
0460
0000
0100
0380
0FC0
1F80
3FC0
78C0
7060
E060
E0E0
FFE0
7FC0
7F00
ENDCHAR
STARTCHAR multiply
ENCODING 215
SWIDTH 490 0
DWIDTH 8 0
BBX 8 8 0 0
BITMAP
63
7F
3C
38
78
EC
CC
84
ENDCHAR
STARTCHAR Oslash
ENCODING 216
SWIDTH 744 0
DWIDTH 12 0
BBX 11 14 0 -2
BITMAP
0120
03E0
0FE0
1FE0
3FC0
7BC0
7760
EE60
EEE0
FFE0
7FC0
7F00
3000
3000
ENDCHAR
STARTCHAR Ugrave
ENCODING 217
SWIDTH 695 0
DWIDTH 11 0
BBX 11 16 1 0
BITMAP
1000
3800
1C00
0E00
0680
00C0
C0C0
E0E0
E0C0
E1C0
E3C0
E780
FF00
FE00
7C00
7000
ENDCHAR
STARTCHAR Uacute
ENCODING 218
SWIDTH 695 0
DWIDTH 11 0
BBX 11 17 1 0
BITMAP
0100
0380
0780
0E00
0400
0080
00C0
C0C0
E0E0
E0C0
E1C0
E3C0
E780
FF00
FE00
7C00
7000
ENDCHAR
STARTCHAR Ucircumflex
ENCODING 219
SWIDTH 695 0
DWIDTH 11 0
BBX 11 16 1 0
BITMAP
0E00
1F00
3980
1100
0080
00C0
C0C0
E0E0
E0C0
E1C0
E3C0
E780
FF00
FE00
7C00
7000
ENDCHAR
STARTCHAR Udieresis
ENCODING 220
SWIDTH 695 0
DWIDTH 11 0
BBX 11 16 1 0
BITMAP
1180
3980
1180
0000
0080
00C0
C0C0
E0E0
E0C0
E1C0
E3C0
E780
FF00
FE00
7C00
7000
ENDCHAR
STARTCHAR Yacute
ENCODING 221
SWIDTH 493 0
DWIDTH 8 0
BBX 9 19 1 -1
BITMAP
0300
0700
0F00
1C00
0800
0000
8300
C780
EF00
EE00
FC00
7C00
7800
7800
7000
E000
E000
C000
4000
ENDCHAR
STARTCHAR Thorn
ENCODING 222
SWIDTH 680 0
DWIDTH 11 0
BBX 11 12 0 0
BITMAP
1000
3000
3800
7FC0
7FE0
70E0
73E0
6FC0
7F00
F800
6000
6000
ENDCHAR
STARTCHAR germandbls
ENCODING 223
SWIDTH 931 0
DWIDTH 15 0
BBX 17 10 0 0
BITMAP
030700
3FBF00
7FFF80
F0F000
FCF800
0C1C00
060C00
1C1C00
7CF800
70F000
ENDCHAR
STARTCHAR agrave
ENCODING 224
SWIDTH 581 0
DWIDTH 9 0
BBX 9 15 0 0
BITMAP
0800
0C00
0E00
0700
0100
0400
0E00
1E00
3E00
3600
7780
7F80
FF00
C700
C300
ENDCHAR
STARTCHAR aacute
ENCODING 225
SWIDTH 581 0
DWIDTH 9 0
BBX 9 15 0 0
BITMAP
0300
0700
0F00
0C00
0800
0400
0E00
1E00
3E00
3600
7780
7F80
FF00
C700
C300
ENDCHAR
STARTCHAR acircumflex
ENCODING 226
SWIDTH 581 0
DWIDTH 9 0
BBX 9 14 0 0
BITMAP
0E00
1F00
3980
1100
0400
0E00
1E00
3E00
3600
7780
7F80
FF00
C700
C300
ENDCHAR
STARTCHAR atilde
ENCODING 227
SWIDTH 581 0
DWIDTH 9 0
BBX 10 13 0 0
BITMAP
0EC0
1FC0
3380
0400
0E00
1E00
3E00
3600
7780
7F80
FF00
C700
C300
ENDCHAR
STARTCHAR adieresis
ENCODING 228
SWIDTH 581 0
DWIDTH 9 0
BBX 10 14 0 0
BITMAP
0980
1DC0
1880
0000
0400
0E00
1E00
3E00
3600
7780
7F80
FF00
C700
C300
ENDCHAR
STARTCHAR aring
ENCODING 229
SWIDTH 581 0
DWIDTH 9 0
BBX 9 13 0 0
BITMAP
0300
0700
0D00
0F80
0E00
1E00
3E00
3600
7780
7F80
FF00
C700
C300
ENDCHAR
STARTCHAR ae
ENCODING 230
SWIDTH 948 0
DWIDTH 15 0
BBX 17 10 -1 0
BITMAP
020100
033F80
0F7F00
1F7000
1B7C00
3BFE00
7FE000
7FC200
C7FF00
C3FE00
ENDCHAR
STARTCHAR ccedilla
ENCODING 231
SWIDTH 513 0
DWIDTH 8 0
BBX 8 15 0 -5
BITMAP
04
0F
3F
7C
F0
E0
C0
E0
7E
3F
30
38
0C
7C
30
ENDCHAR
STARTCHAR egrave
ENCODING 232
SWIDTH 521 0
DWIDTH 8 0
BBX 9 15 0 0
BITMAP
1000
3800
1C00
0E00
0400
0100
3F80
7F00
7000
7E00
7E00
E000
C200
FF00
7E00
ENDCHAR
STARTCHAR eacute
ENCODING 233
SWIDTH 521 0
DWIDTH 8 0
BBX 9 15 0 0
BITMAP
0200
0700
0E00
1C00
0800
0100
3F80
7F00
7000
7E00
7E00
E000
C200
FF00
7E00
ENDCHAR
STARTCHAR ecircumflex
ENCODING 234
SWIDTH 521 0
DWIDTH 8 0
BBX 9 14 0 0
BITMAP
0E00
1F00
1980
1080
0100
3F80
7F00
7000
7E00
7E00
E000
C200
FF00
7E00
ENDCHAR
STARTCHAR edieresis
ENCODING 235
SWIDTH 521 0
DWIDTH 8 0
BBX 10 14 0 0
BITMAP
0980
1DC0
1880
0000
0100
3F80
7F00
7000
7E00
7E00
E000
C200
FF00
7E00
ENDCHAR
STARTCHAR igrave
ENCODING 236
SWIDTH 320 0
DWIDTH 5 0
BBX 5 15 1 0
BITMAP
40
E0
70
38
18
20
60
60
60
E0
C0
C0
C0
C0
C0
ENDCHAR
STARTCHAR iacute
ENCODING 237
SWIDTH 320 0
DWIDTH 5 0
BBX 7 15 1 0
BITMAP
02
0E
1E
1C
10
20
60
60
60
E0
C0
C0
C0
C0
C0
ENDCHAR
STARTCHAR icircumflex
ENCODING 238
SWIDTH 320 0
DWIDTH 5 0
BBX 6 14 1 0
BITMAP
70
FC
CC
84
20
60
60
60
E0
C0
C0
C0
C0
C0
ENDCHAR
STARTCHAR idieresis
ENCODING 239
SWIDTH 320 0
DWIDTH 5 0
BBX 6 14 1 0
BITMAP
8C
CC
CC
00
20
60
60
60
E0
C0
C0
C0
C0
C0
ENDCHAR
STARTCHAR eth
ENCODING 240
SWIDTH 541 0
DWIDTH 9 0
BBX 8 10 0 0
BITMAP
20
38
7C
26
F3
F9
E7
7E
7C
70
ENDCHAR
STARTCHAR ntilde
ENCODING 241
SWIDTH 564 0
DWIDTH 9 0
BBX 11 14 0 0
BITMAP
0760
0FE0
1DC0
0000
1100
1980
3980
3980
7B80
7B80
FF00
FF00
CE00
C400
ENDCHAR
STARTCHAR ograve
ENCODING 242
SWIDTH 628 0
DWIDTH 10 0
BBX 10 15 0 0
BITMAP
0400
0E00
0700
0380
0180
0200
0F00
1F00
3F00
7180
6180
E1C0
C380
FF80
7E00
ENDCHAR
STARTCHAR oacute
ENCODING 243
SWIDTH 628 0
DWIDTH 10 0
BBX 10 15 0 0
BITMAP
0100
0380
0700
0E00
0C00
0200
0F00
1F00
3F00
7180
6180
E1C0
C380
FF80
7E00
ENDCHAR
STARTCHAR ocircumflex
ENCODING 244
SWIDTH 628 0
DWIDTH 10 0
BBX 10 14 0 0
BITMAP
0700
0F80
1CC0
0880
0200
0F00
1F00
3F00
7180
6180
E1C0
C380
FF80
7E00
ENDCHAR
STARTCHAR otilde
ENCODING 245
SWIDTH 628 0
DWIDTH 10 0
BBX 11 14 0 0
BITMAP
0760
0FE0
1DC0
0000
0200
0F00
1F00
3F00
7180
6180
E1C0
C380
FF80
7E00
ENDCHAR
STARTCHAR odieresis
ENCODING 246
SWIDTH 628 0
DWIDTH 10 0
BBX 10 14 0 0
BITMAP
08C0
0CC0
0CC0
0000
0200
0F00
1F00
3F00
7180
6180
E1C0
C380
FF80
7E00
ENDCHAR
STARTCHAR divide
ENCODING 247
SWIDTH 559 0
DWIDTH 9 0
BBX 8 9 0 0
BITMAP
0C
0C
08
3E
FF
F0
10
38
38
ENDCHAR
STARTCHAR oslash
ENCODING 248
SWIDTH 632 0
DWIDTH 10 0
BBX 10 12 0 -2
BITMAP
0280
0F80
1F80
3F80
7780
6F80
ED80
DBC0
FF80
7E00
7000
2000
ENDCHAR
STARTCHAR ugrave
ENCODING 249
SWIDTH 584 0
DWIDTH 9 0
BBX 9 15 1 0
BITMAP
1000
3800
3C00
0E00
0400
0100
8100
C180
C380
C300
C700
CE00
FC00
FC00
7000
ENDCHAR
STARTCHAR uacute
ENCODING 250
SWIDTH 584 0
DWIDTH 9 0
BBX 9 14 1 0
BITMAP
0300
0700
0F00
1C00
0900
8100
C180
C380
C300
C700
CE00
FC00
FC00
7000
ENDCHAR
STARTCHAR ucircumflex
ENCODING 251
SWIDTH 584 0
DWIDTH 9 0
BBX 9 14 1 0
BITMAP
0E00
1F00
3300
2100
0100
8100
C180
C380
C300
C700
CE00
FC00
FC00
7000
ENDCHAR
STARTCHAR udieresis
ENCODING 252
SWIDTH 584 0
DWIDTH 9 0
BBX 9 14 1 0
BITMAP
1300
3B80
3100
0000
0100
8100
C180
C380
C300
C700
CE00
FC00
FC00
7000
ENDCHAR
STARTCHAR yacute
ENCODING 253
SWIDTH 400 0
DWIDTH 6 0
BBX 8 17 1 -1
BITMAP
02
07
0E
1C
18
00
84
CE
DE
DC
F8
70
70
E0
C0
C0
80
ENDCHAR
STARTCHAR thorn
ENCODING 254
SWIDTH 579 0
DWIDTH 9 0
BBX 9 10 0 0
BITMAP
2000
3000
7F00
7F80
6380
6780
7F00
FC00
6000
6000
ENDCHAR
STARTCHAR ydieresis
ENCODING 255
SWIDTH 400 0
DWIDTH 6 0
BBX 8 15 1 -1
BITMAP
22
77
62
00
84
CE
DE
DC
F8
70
70
E0
C0
C0
80
ENDCHAR
STARTCHAR dotlessi
ENCODING 305
SWIDTH 320 0
DWIDTH 5 0
BBX 3 10 1 0
BITMAP
20
60
60
60
E0
C0
C0
C0
C0
C0
ENDCHAR
STARTCHAR Lslash
ENCODING 321
SWIDTH 632 0
DWIDTH 10 0
BBX 12 12 -2 0
BITMAP
0400
0700
0E00
0E00
0F00
3F80
FC00
7800
3800
3FE0
3FF0
1F20
ENDCHAR
STARTCHAR lslash
ENCODING 322
SWIDTH 533 0
DWIDTH 9 0
BBX 10 10 -2 0
BITMAP
0800
0E00
0C00
1C00
1F00
FC00
7800
3B80
3FC0
1FC0
ENDCHAR
STARTCHAR OE
ENCODING 338
SWIDTH 1212 0
DWIDTH 19 0
BBX 20 12 0 0
BITMAP
010020
0387F0
0FFFE0
1F9F00
3FDC00
78DF80
707FC0
E07F00
E0F000
FFFFE0
7FFFE0
7F3F80
ENDCHAR
STARTCHAR oe
ENCODING 339
SWIDTH 1010 0
DWIDTH 16 0
BBX 17 10 0 0
BITMAP
020100
0F3F80
1F7F00
3F7000
71FC00
61FE00
E1E000
C3C200
FFFF00
7EFE00
ENDCHAR
STARTCHAR Scaron
ENCODING 352
SWIDTH 576 0
DWIDTH 9 0
BBX 11 17 0 0
BITMAP
0CC0
1DC0
0780
0200
0000
01C0
1FC0
7FE0
F800
FC00
7E00
0700
0300
0700
1E00
7C00
7800
ENDCHAR
STARTCHAR scaron
ENCODING 353
SWIDTH 463 0
DWIDTH 7 0
BBX 9 15 0 0
BITMAP
3300
3F00
1E00
0C00
0000
0300
3F80
7F80
F000
FC00
0C00
0600
1C00
7C00
7000
ENDCHAR
STARTCHAR Ydieresis
ENCODING 376
SWIDTH 493 0
DWIDTH 8 0
BBX 9 17 1 -1
BITMAP
1300
3B80
3100
0000
8300
C780
EF00
EE00
FC00
7C00
7800
7800
7000
E000
E000
C000
4000
ENDCHAR
STARTCHAR Zcaron
ENCODING 381
SWIDTH 664 0
DWIDTH 11 0
BBX 11 18 0 -1
BITMAP
0660
07E0
03C0
0180
0000
0000
3FE0
1FE0
03E0
0780
0F00
3E00
7C00
F080
E7C0
FFC0
FE00
3000
ENDCHAR
STARTCHAR zcaron
ENCODING 382
SWIDTH 547 0
DWIDTH 9 0
BBX 10 16 0 -1
BITMAP
0CC0
1DC0
0780
0200
0000
0000
3F80
3F80
0700
1E00
3C00
F000
E300
FF00
FE00
6000
ENDCHAR
STARTCHAR circumflex
ENCODING 710
SWIDTH 754 0
DWIDTH 12 0
BBX 6 4 4 8
BITMAP
30
FC
CC
84
ENDCHAR
STARTCHAR caron
ENCODING 711
SWIDTH 754 0
DWIDTH 12 0
BBX 6 4 4 8
BITMAP
CC
FC
78
30
ENDCHAR
STARTCHAR breve
ENCODING 728
SWIDTH 754 0
DWIDTH 12 0
BBX 6 3 4 9
BITMAP
CC
FC
78
ENDCHAR
STARTCHAR dotaccent
ENCODING 729
SWIDTH 754 0
DWIDTH 12 0
BBX 2 3 6 9
BITMAP
40
C0
C0
ENDCHAR
STARTCHAR ring
ENCODING 730
SWIDTH 754 0
DWIDTH 12 0
BBX 4 5 5 8
BITMAP
20
70
F0
F0
E0
ENDCHAR
STARTCHAR ogonek
ENCODING 731
SWIDTH 754 0
DWIDTH 12 0
BBX 6 5 5 -4
BITMAP
80
80
80
F8
7C
ENDCHAR
STARTCHAR tilde
ENCODING 732
SWIDTH 754 0
DWIDTH 12 0
BBX 8 3 3 9
BITMAP
73
7E
DE
ENDCHAR
STARTCHAR hungarumlaut
ENCODING 733
SWIDTH 754 0
DWIDTH 12 0
BBX 8 5 3 7
BITMAP
31
77
FF
CE
88
ENDCHAR
STARTCHAR endash
ENCODING 8211
SWIDTH 588 0
DWIDTH 9 0
BBX 8 2 0 3
BITMAP
FF
7F
ENDCHAR
STARTCHAR emdash
ENCODING 8212
SWIDTH 878 0
DWIDTH 14 0
BBX 13 3 0 3
BITMAP
0380
FFF8
7FE0
ENDCHAR
STARTCHAR quoteleft
ENCODING 8216
SWIDTH 203 0
DWIDTH 3 0
BBX 4 5 1 7
BITMAP
70
70
60
E0
40
ENDCHAR
STARTCHAR quoteright
ENCODING 8217
SWIDTH 199 0
DWIDTH 3 0
BBX 4 5 1 7
BITMAP
70
70
70
E0
40
ENDCHAR
STARTCHAR quotesinglbase
ENCODING 8218
SWIDTH 204 0
DWIDTH 3 0
BBX 4 5 -2 -3
BITMAP
30
70
70
E0
40
ENDCHAR
STARTCHAR quotedblleft
ENCODING 8220
SWIDTH 410 0
DWIDTH 7 0
BBX 7 5 1 7
BITMAP
76
7E
6C
EC
4C
ENDCHAR
STARTCHAR quotedblright
ENCODING 8221
SWIDTH 425 0
DWIDTH 7 0
BBX 7 5 1 7
BITMAP
76
76
7E
FC
4C
ENDCHAR
STARTCHAR quotedblbase
ENCODING 8222
SWIDTH 430 0
DWIDTH 7 0
BBX 8 5 -2 -3
BITMAP
37
77
7E
EC
4C
ENDCHAR
STARTCHAR bullet
ENCODING 8226
SWIDTH 299 0
DWIDTH 5 0
BBX 3 4 1 3
BITMAP
80
E0
E0
C0
ENDCHAR
STARTCHAR ellipsis
ENCODING 8230
SWIDTH 768 0
DWIDTH 12 0
BBX 11 3 0 0
BITMAP
8840
CEE0
CCE0
ENDCHAR
STARTCHAR perthousand
ENCODING 8240
SWIDTH 889 0
DWIDTH 14 0
BBX 13 11 1 0
BITMAP
3080
7180
D380
F600
6C00
1800
3318
6738
CD68
CF78
8E70
ENDCHAR
STARTCHAR guilsinglleft
ENCODING 8249
SWIDTH 322 0
DWIDTH 5 0
BBX 5 7 0 0
BITMAP
10
38
70
E0
C0
70
30
ENDCHAR
STARTCHAR guilsinglright
ENCODING 8250
SWIDTH 341 0
DWIDTH 5 0
BBX 5 7 0 0
BITMAP
80
60
70
38
70
E0
80
ENDCHAR
STARTCHAR fraction
ENCODING 8260
SWIDTH 541 0
DWIDTH 9 0
BBX 9 12 0 0
BITMAP
0100
0180
0300
0700
0E00
1C00
1800
3000
7000
E000
C000
C000
ENDCHAR
STARTCHAR Euro
ENCODING 8364
SWIDTH 565 0
DWIDTH 9 0
BBX 9 10 0 0
BITMAP
0100
0780
1F00
3C00
7800
FE00
FF00
7800
3F00
0F00
ENDCHAR
STARTCHAR Delta
ENCODING 8710
SWIDTH 403 0
DWIDTH 6 0
BBX 10 10 -1 0
BITMAP
0F00
3FC0
1E00
0C00
0C00
0C00
1C00
1800
FE00
7C00
ENDCHAR
STARTCHAR minus
ENCODING 8722
SWIDTH 548 0
DWIDTH 9 0
BBX 8 2 0 3
BITMAP
FF
FE
ENDCHAR
STARTCHAR approxequal
ENCODING 8776
SWIDTH 323 0
DWIDTH 5 0
BBX 4 12 1 0
BITMAP
20
60
60
F0
E0
E0
E0
C0
C0
C0
E0
C0
ENDCHAR
STARTCHAR fi
ENCODING 64257
SWIDTH 810 0
DWIDTH 13 0
BBX 12 10 0 0
BITMAP
0310
3FB0
7C30
7030
3070
FE60
FE60
6060
C060
C060
ENDCHAR
STARTCHAR fl
ENCODING 64258
SWIDTH 1012 0
DWIDTH 16 0
BBX 16 10 0 0
BITMAP
0320
3FB0
7C70
7070
3060
FEE0
FEE0
60CC
C0FF
C0FF
ENDCHAR
STARTCHAR .notdef
ENCODING -1
SWIDTH 370 0
DWIDTH 6 0
BBX 1 1 0 0
BITMAP
00
ENDCHAR
ENDFONT
